<svg 
  xmlns="http://www.w3.org/2000/svg" width="64" height="64" viewBox="0 0 64 64">
  <path fill="#000000" fill-opacity=".25" d="M63,19.996823 C63,19.3953711 62.9998933,19.1551201 62.9994667,18.8493955 C62.9988685,18.420781 62.997679,18.052221 62.9957483,17.7060502 C62.9906433,16.9364512 62.9819901,16.3485419 62.9672447,15.7928295 C62.9219614,14.0914674 62.8173691,12.8761537 62.6138041,11.7403831 C62.367662,10.3694649 61.9728113,9.16821736 61.39275,8.02992998 C60.8029407,6.87095475 60.0325794,5.81051675 59.1114335,4.88937055 C58.1878758,3.96680057 57.1268268,3.19593015 55.9698624,2.60714422 C54.8327999,2.02817248 53.6313189,1.63335023 52.2614339,1.3872071 C51.1296018,1.18363391 49.92522,1.07976029 48.2083729,1.03275874 C47.651002,1.01799395 47.0632316,1.00934622 46.2950621,1.00425843 C45.6853146,1.00085202 45.2055019,1 44.003177,1 L19.996823,1 C19.395948,1 19.1557037,1.00010668 18.850064,1.00053315 C18.4212813,1.00113146 18.052786,1.00232112 17.7071075,1.00425171 C16.9368421,1.00935281 16.3487748,1.01800374 15.7936368,1.0327334 C14.0750496,1.07978217 12.8703558,1.18367733 11.7394524,1.3872399 C10.369747,1.63335072 9.16826665,2.02817365 8.03099876,2.60724992 C6.87265165,3.19673955 5.81101744,3.96798861 4.89003741,4.88896866 C3.96848924,5.81051681 3.19812792,6.8709548 2.6080562,8.03044538 C2.02825662,9.16821907 1.63340644,10.369467 1.38732188,11.7400643 C1.18370015,12.8761512 1.07910745,14.0914635 1.03382626,15.7927426 C1.01805662,16.3870609 1.00876232,17.0145174 1.00531793,17.7064117 C1.00289889,18.0533031 1.00141351,18.4214991 1.00066635,18.8497661 C1.00013327,19.1553323 1,19.3954703 1,19.996823 L1,44.003177 C1,44.6045297 1.00013327,44.8446677 1.00066635,45.1502339 C1.00141353,45.5785133 1.00289896,45.9467083 1.00533062,46.2957117 C1.00876238,46.9854952 1.01805691,47.6129503 1.03382394,48.2071704 C1.07910735,49.9085328 1.18369969,51.1238462 1.38726468,52.2596168 C1.63355529,53.631362 2.02856199,54.833449 2.60815329,55.9708138 C3.19850343,57.1298681 3.96912614,58.1900362 4.89084063,59.1107666 C5.80910139,60.0309937 6.86980078,60.8018096 8.03120644,61.3928557 C9.16826565,61.9718258 10.3697458,62.3666491 11.7389957,62.6126781 C12.8775189,62.8167365 14.0988545,62.9221581 15.7927426,62.9672424 C16.3487666,62.981996 16.9368362,62.9906473 17.7060068,62.9957415 C18.052787,62.9976788 18.4212842,62.9988686 18.8500641,62.9994668 C19.1557026,62.9998933 19.395945,63 19.996823,63 L44.003177,63 C45.2054945,63 45.6853091,62.999148 46.2939615,62.9957482 C47.0632145,62.990654 47.6509924,62.9820063 48.2082393,62.9672447 C49.901423,62.922179 51.1224158,62.8167827 52.2616163,62.6127601 C53.6313217,62.3666493 54.8328022,61.9718263 55.9700701,61.39275 C57.1296862,60.8026146 58.1898204,60.0321587 59.1114335,59.1095605 C60.031952,58.1900266 60.8025714,57.1298562 61.3930126,55.9706231 C61.9725065,54.8334495 62.3675134,53.6313627 62.6137469,52.2599357 C62.8173686,51.1238489 62.9219613,49.9085363 62.9672424,48.2072573 C62.9819899,47.6514649 62.9906432,47.0635577 62.9957415,46.2950702 C62.997679,45.9477876 62.9988684,45.5792293 62.9994667,45.1506047 C62.9998933,44.8448799 63,44.6046289 63,44.003177 L63,19.996823 Z M64,19.996823 L64,44.003177 C64,44.5777368 63.999911,44.8329566 63.9994657,45.1520003 C63.9988781,45.57304 63.9977104,45.9449395 63.9957259,46.3006491 C63.990737,47.0527357 63.9822617,47.6544857 63.9668906,48.2337821 C63.9219739,49.9213711 63.8185436,51.2062004 63.598062,52.4363553 C63.3369531,53.8906324 62.9140628,55.1882434 62.2839953,56.4246603 C61.6458735,57.6775064 60.8130174,58.823254 59.8181618,59.8170455 C58.8230347,60.8132371 57.6772357,61.6460085 56.4236221,62.2839798 C55.1876199,62.9133298 53.8908084,63.3360388 52.4384658,63.596998 C51.2052459,63.817859 49.9154358,63.9221602 48.2348458,63.9668907 C47.6541094,63.9822745 47.0526381,63.9907459 46.3005837,63.9957263 C45.663114,63.9992876 45.1525052,64 44.003177,64 L19.996823,64 C19.4228648,64 19.1676452,63.999911 18.8486687,63.9994658 C18.4274764,63.9988782 18.0556223,63.9977103 17.7004203,63.9957259 C16.9475909,63.9907404 16.3456956,63.9822665 15.7662179,63.9668906 C14.0849607,63.9221424 12.7946678,63.8178219 11.5625761,63.5969931 C10.1102603,63.3360388 8.81344892,62.9133298 7.57745895,62.283986 C6.32250304,61.6453317 5.17592219,60.8121872 4.18297797,59.8171167 C3.18805126,58.8232542 2.35519524,57.6775064 1.71707913,56.4246716 C1.08700595,55.1882433 0.664115645,53.8906323 0.403003444,52.4363365 C0.182525235,51.2062005 0.079094926,49.9213716 0.0341779611,48.233777 C0.0179828742,47.6234246 0.00875852374,46.987208 0.00534299541,46.3006868 C0.0028618736,45.9448761 0.00140238278,45.5729978 0.000667875945,45.1519785 C0.000111292117,44.8329445 0,44.5777295 0,44.003177 L0,19.996823 C0,19.4222705 0.000111292117,19.1670555 0.000667875945,18.8480215 C0.00140238278,18.4270022 0.0028618736,18.0551239 0.00534224783,17.6994383 C0.00875852374,17.012792 0.0179828742,16.3765754 0.0341780973,15.7662179 C0.079094926,14.0786284 0.182525236,12.7937995 0.403006814,11.5636448 C0.66399925,10.110016 1.08677421,8.81328028 1.71707341,7.5764083 C2.35474859,6.32337659 3.18734907,5.17744342 4.18293064,4.18186187 C5.17784378,3.18694871 6.3249474,2.35342437 7.5774467,1.71602014 C8.81344895,1.08667008 10.1102604,0.663961184 11.562603,0.403001983 C12.7884215,0.182354645 14.0639618,0.0797110519 15.7662706,0.0331079229 C16.3456924,0.0177335674 16.9475825,0.00925975283 17.7004851,0.00427364308 C18.0556223,0.00228967039 18.4274764,0.00112183734 18.8486687,0.000534128219 C19.1676452,8.90454168e-05 19.4228648,0 19.996823,0 L44.003177,0 C45.1525052,0 45.663114,0.000712394395 46.3006486,0.00427403911 C47.0526465,0.00925419222 47.6541124,0.0177255453 48.2348537,0.0331094162 C49.9364174,0.0796921738 51.2115052,0.182318828 52.438455,0.403000051 C53.8908084,0.663961202 55.1876199,1.08667012 56.4236099,1.71601391 C57.6747933,2.35274846 58.821096,3.18588598 59.8181618,4.18188556 C60.8137197,5.17744346 61.6463201,6.32337665 62.2839798,7.57637793 C62.9142946,8.81328019 63.3370696,10.1100159 63.5980653,11.5636636 C63.8185436,12.7937996 63.9219739,14.0786289 63.9668907,15.766223 C63.9822617,16.3455143 63.990737,16.9472643 63.9957263,17.699417 C63.9977104,18.0550605 63.9988781,18.42696 63.9994657,18.8479997 C63.999911,19.1670434 64,19.4222632 64,19.996823 Z"/>
</svg>