<svg 
  xmlns="http://www.w3.org/2000/svg" width="512" height="512" viewBox="0 0 512 512">
  <path fill="#000000" fill-opacity=".25" d="M511,159.974584 C511,155.159966 510.999145,153.235198 510.995727,150.785394 C510.990928,147.347238 510.981381,144.38915 510.965832,141.60197 C510.924707,135.402102 510.854823,130.654098 510.73548,126.156391 C510.364582,112.221212 509.499069,102.164351 507.800262,92.6860281 C505.71256,81.0583218 502.338731,70.7941797 497.380608,61.0645755 C492.328251,51.1366931 485.730289,42.0542926 477.838566,34.1625695 C469.931322,26.2637812 460.84509,19.6624773 450.935131,14.6192416 C441.212822,9.66881671 430.947825,6.29560546 419.330619,4.20820746 C409.88475,2.5092578 399.91683,1.64956048 385.852349,1.26452465 C381.342086,1.14504753 376.595233,1.0752082 370.399602,1.03417671 C365.505579,1.0068358 361.656037,1 352.025416,1 L159.974584,1 C155.164582,1 153.239867,1.00085468 150.790745,1.00427205 C147.351228,1.00907137 144.393643,1.01861975 141.610503,1.03416722 C135.405284,1.07526138 130.655994,1.14512717 126.157531,1.26448886 C112.085085,1.64974211 102.1145,2.50962493 92.6776733,4.20825379 C81.060701,6.29560963 70.795709,9.66882682 61.0731257,14.6193909 C51.1502439,19.6692036 42.0582786,26.2742748 34.1705519,34.1620018 C26.2782606,42.0542928 19.6802981,51.1366934 14.6275701,61.0653035 C9.66981159,70.7941949 6.29598733,81.05834 4.20836957,92.6855778 C2.50948556,102.16433 1.6439688,112.22118 1.27307294,126.156268 C1.14551906,130.963455 1.0704255,136.033007 1.04271367,141.60248 C1.02327034,144.390653 1.01133885,147.348231 1.00534149,150.785917 C1.00106804,153.235455 1,155.160009 1,159.974584 L1,352.025416 C1,356.839991 1.00106804,358.764545 1.00534149,361.214083 C1.01133902,364.651868 1.02327095,367.609438 1.04273159,370.400519 C1.07042599,375.967093 1.14552146,381.036636 1.27306967,385.843609 C1.64396802,399.77879 2.50948165,409.835648 4.20828878,419.313972 C6.29714455,430.948105 9.67215036,441.218945 14.6277072,450.943515 C19.6846531,460.871987 26.2851465,469.952477 34.1716864,477.830583 C42.0395156,485.715261 51.1260054,492.318461 61.0734191,497.380758 C70.7957004,502.331168 81.0606907,505.704389 92.6770281,507.79163 C102.174504,509.49387 112.280078,510.366149 126.156268,510.735477 C130.655926,510.854871 135.405237,510.924739 141.608949,510.965823 C144.39365,510.98138 147.351252,510.990929 150.790745,510.995728 C153.239858,510.999145 155.164558,511 159.974584,511 L352.025416,511 C361.655978,511 365.505535,510.993164 370.398047,510.965832 C376.595096,510.924793 381.34201,510.854954 385.85216,510.73548 C399.721907,510.366323 409.82456,509.49426 419.330877,507.791746 C430.947849,505.704391 441.212842,502.331173 450.935425,497.380608 C460.8694,492.325151 469.95032,485.725563 477.838566,477.828879 C485.723484,469.952395 492.323949,460.871884 497.38098,450.943245 C502.336397,441.21895 505.711405,430.948111 507.800181,419.314422 C509.499065,409.835671 510.364581,399.778818 510.735477,385.843732 C510.854821,381.345957 510.924706,376.597969 510.965823,370.399614 C510.981381,367.610919 510.990928,364.652844 510.995727,361.214606 C510.999145,358.764802 511,356.840034 511,352.025416 L511,159.974584 Z M512,159.974584 L512,352.025416 C512,356.621894 511.999288,358.663653 511.995726,361.216002 C511.991024,364.58432 511.981683,367.559516 511.965807,370.405193 C511.925896,376.421886 511.858094,381.235885 511.735125,385.870257 C511.375791,399.370968 510.548349,409.649603 508.784496,419.490842 C506.695625,431.125059 503.312502,441.505947 498.271962,451.397282 C493.166988,461.420051 486.504139,470.586032 478.545295,478.536364 C470.584278,486.505897 461.417886,493.168068 451.388977,498.271838 C441.50096,503.306639 431.126467,506.688311 419.507726,508.775984 C409.641967,510.542872 399.323487,511.377282 385.878766,511.735126 C381.232875,511.858196 376.421104,511.925967 370.40467,511.96581 C365.304912,511.994301 361.220042,512 352.025416,512 L159.974584,512 C155.382918,512 153.341161,511.999288 150.789349,511.995727 C147.419811,511.991025 144.444978,511.981682 141.603362,511.965807 C135.580727,511.925923 130.765564,511.858132 126.129743,511.735125 C112.679686,511.377139 102.357343,510.542575 92.5006086,508.775945 C80.8820826,506.688311 70.5075913,503.306639 60.6196716,498.271888 C50.5800243,493.162653 41.4073775,486.497497 33.4638237,478.536933 C25.5044101,470.586033 18.8415619,461.420051 13.7366331,451.397372 C8.69604764,441.505946 5.31292516,431.125058 3.22402755,419.490692 C1.46020188,409.649604 0.632759408,399.370972 0.273423689,385.870216 C0.143862993,380.987397 0.0700681899,375.897664 0.0427439633,370.405494 C0.0228949888,367.559009 0.0112190622,364.583982 0.00534300756,361.215828 C0.000890336939,358.663556 0,356.621836 0,352.025416 L0,159.974584 C0,155.378164 0.000890336939,153.336444 0.00534300756,150.784172 C0.0112190622,147.416018 0.0228949888,144.440991 0.0427379826,141.595507 C0.0700681899,136.102336 0.143862993,131.012603 0.273424779,126.129743 C0.632759408,112.629028 1.46020189,102.350396 3.22405451,92.5091582 C5.311994,80.8801283 8.69419365,70.5062422 13.7365873,60.6112664 C18.8379887,50.5870128 25.4987925,41.4195474 33.4634451,33.454895 C41.4227502,25.4955897 50.5995792,18.827395 60.6195736,13.7281611 C70.5075916,8.69336066 80.8820831,5.31168947 92.5008239,3.22401587 C102.307372,1.45883716 112.511694,0.637688415 126.130165,0.264863383 C130.765539,0.141868539 135.58066,0.0740780226 141.603881,0.0341891447 C144.444978,0.0183173631 147.419811,0.00897469871 150.789349,0.00427302575 C153.341161,0.000712363335 155.382918,0 159.974584,0 L352.025416,0 C361.220042,0 365.304912,0.00569915516 370.405189,0.0341923129 C376.421172,0.0740335378 381.2329,0.141804363 385.87883,0.26487533 C399.49134,0.63753739 409.692042,1.45855062 419.50764,3.22400041 C431.126467,5.31168961 441.50096,8.69336095 451.388879,13.7281113 C461.398347,18.8219877 470.568768,25.4870879 478.545295,33.4550845 C486.509757,41.4195477 493.170561,50.5870132 498.271838,60.6110234 C503.314357,70.5062415 506.696557,80.8801272 508.784523,92.5093085 C510.548349,102.350397 511.375791,112.629032 511.735126,126.129784 C511.858094,130.764115 511.925896,135.578114 511.96581,141.595336 C511.981683,144.440484 511.991024,147.41568 511.995726,150.783998 C511.999288,153.336347 512,155.378106 512,159.974584 Z"/>
</svg>