<svg 
  xmlns="http://www.w3.org/2000/svg" width="256" height="256" viewBox="0 0 256 256">
  <path fill="#000000" fill-opacity=".25" d="M255,79.9872922 C255,77.5801974 254.999573,76.6180107 254.997864,75.3933947 C254.995465,73.6749769 254.990694,72.1966193 254.982927,70.8043013 C254.962385,67.7074446 254.92749,65.3366373 254.867917,63.0914986 C254.683085,56.1470721 254.252383,51.1425241 253.408,46.4313739 C252.372618,40.6646893 250.701063,35.5793441 248.244689,30.7590638 C245.742359,25.8419855 242.474455,21.3435635 238.565919,17.4350272 C234.649353,13.5226494 230.14894,10.2530218 225.240692,7.75518596 C220.424238,5.30273429 215.338393,3.63145961 209.576799,2.59620726 C204.881808,1.75175843 199.921624,1.32396037 192.912934,1.13208699 C190.661467,1.07244548 188.291232,1.03757278 185.197008,1.01708055 C182.751142,1.0034165 180.82716,1 176.012708,1 L79.9872922,1 C77.5825056,1 76.6203453,1.00042725 75.3960701,1.00213554 C73.6769728,1.00453428 72.1988676,1.00930625 70.8085629,1.01707264 C67.7090315,1.03759934 65.3375831,1.07248521 63.0924487,1.13205717 C56.0793506,1.32405072 51.1178464,1.75194059 46.4272614,2.59624585 C40.6658702,3.63146168 35.5800277,5.30273929 30.7633389,7.75531034 C25.8487626,10.256367 21.3455579,13.5278256 17.4388293,17.4345543 C13.5298198,21.3435637 10.2619152,25.8419856 7.75927642,30.7596703 C5.30320875,35.5793516 3.63165539,40.6646983 2.59634232,46.4309987 C1.7518939,51.1425135 1.32119088,56.1470565 1.13636055,63.0913962 C1.07268338,65.4912297 1.03518939,68.0224415 1.02134468,70.8047267 C1.01162951,72.1978816 1.00566722,73.6758126 1.00266998,75.3938308 C1.00053388,76.6182421 1,77.5802724 1,79.9872922 L1,176.012708 C1,178.419728 1.00053388,179.381758 1.00266998,180.606169 C1.00566731,182.324237 1.01162981,183.802164 1.02135961,185.197772 C1.03518964,187.977609 1.07268458,190.508816 1.13635783,192.908501 C1.3211905,199.852929 1.75189196,204.857476 2.59627501,209.568626 C3.6322364,215.338538 5.30438558,220.427233 7.75939069,225.244829 C10.2639961,230.162205 13.5331349,234.659654 17.4397745,238.562117 C21.3364218,242.467108 25.8367456,245.737517 30.7635833,248.244814 C35.5800234,250.697258 40.6658651,252.368537 46.4267239,253.403657 C51.1476554,254.249794 56.1765218,254.683869 63.0913963,254.867914 C65.3375493,254.927514 67.7090078,254.962401 70.8072676,254.982919 C72.1988711,254.990694 73.6769846,254.995466 75.3960702,254.997864 C76.6203406,254.999573 77.5824934,255 79.9872922,255 L176.012708,255 C180.82713,255 182.75112,254.996584 185.195713,254.982927 C188.291164,254.962428 190.661428,254.927555 192.912777,254.867917 C199.824488,254.683955 204.851906,254.249987 209.577014,253.403754 C215.338405,252.368538 220.424248,250.69726 225.240936,248.244689 C230.160992,245.740844 234.658606,242.472189 238.565919,238.560697 C242.47118,234.659613 245.740304,230.162154 248.244998,225.244604 C250.699888,220.427235 252.372038,215.338541 253.407933,209.569001 C254.252381,204.857487 254.683084,199.852943 254.867914,192.908604 C254.927489,190.66339 254.962385,188.292591 254.982919,185.197017 C254.990694,183.803415 254.995465,182.325064 254.997864,180.606605 C254.999573,179.381989 255,178.419803 255,176.012708 L255,79.9872922 Z M256,79.9872922 L256,176.012708 C256,178.310947 255.999644,179.331826 255.997863,180.608001 C255.995512,182.29216 255.990842,183.779758 255.982904,185.202596 C255.962948,188.210943 255.929047,190.617943 255.867562,192.935128 C255.687895,199.685484 255.274174,204.824801 254.392248,209.745421 C253.347812,215.56253 251.656251,220.752974 249.135981,225.698641 C246.583494,230.710026 243.25207,235.293016 239.272647,239.268182 C235.292139,243.252948 230.708943,246.584034 225.694489,249.135919 C220.75048,251.653319 215.563233,253.344155 209.753863,254.387992 C204.820983,255.271436 199.661743,255.688641 192.939383,255.867563 C190.616438,255.929098 188.210552,255.962984 185.202335,255.982905 C182.652456,255.99715 180.610021,256 176.012708,256 L79.9872922,256 C77.6914591,256 76.6705807,255.999644 75.3946747,255.997863 C73.7099057,255.995513 72.222489,255.990841 70.801681,255.982904 C67.7903636,255.962962 65.3827822,255.929066 63.0648716,255.867562 C56.3398428,255.68857 51.1786713,255.271288 46.2503043,254.387973 C40.4410413,253.344155 35.2537957,251.653319 30.3098358,249.135944 C25.2900122,246.581327 20.7036887,243.248749 16.7319119,239.268467 C12.7522051,235.293017 9.42078096,230.710026 6.86831653,225.698686 C4.34802382,220.752973 2.65646258,215.562529 1.61201377,209.745346 C0.730100938,204.824802 0.316379704,199.685486 0.136711844,192.935108 C0.0719314967,190.493699 0.035034095,187.948832 0.0213719817,185.202747 C0.0114474944,183.779504 0.00560953112,182.291991 0.00267150378,180.607914 C0.00044516847,179.331778 0,178.310918 0,176.012708 L0,79.9872922 C0,77.689082 0.00044516847,76.6682221 0.00267150378,75.3920862 C0.00560953112,73.708009 0.0114474944,72.2204957 0.0213689913,70.7977534 C0.035034095,68.0511679 0.0719314967,65.5063015 0.136712389,63.0648716 C0.316379704,56.3145138 0.730100943,51.1751981 1.61202726,46.2545791 C2.655997,40.4400642 4.34709682,35.2531211 6.86829364,30.3056332 C9.41899437,25.2935064 12.7493963,20.7097737 16.7317225,16.7274475 C20.7113751,12.7477948 25.2997896,9.41369748 30.3097868,6.86408056 C35.2537958,4.34668033 40.4410416,2.65584474 46.2504119,1.61200793 C51.153686,0.729418581 56.2558472,0.318844208 63.0650825,0.132431692 C65.3827697,0.0709342695 67.79033,0.0370390113 70.8019405,0.0170945723 C72.222489,0.00915868155 73.7099057,0.00448734935 75.3946747,0.00213651288 C76.6705807,0.000356181667 77.6914591,0 79.9872922,0 L176.012708,0 C180.610021,0 182.652456,0.00284957758 185.202594,0.0170961564 C188.210586,0.0370167689 190.61645,0.0709021813 192.939415,0.132437665 C199.74567,0.318768695 204.846021,0.729275311 209.75382,1.6120002 C215.563233,2.65584481 220.75048,4.34668048 225.694439,6.86405566 C230.699173,9.41099385 235.284384,12.7435439 239.272647,16.7275422 C243.254879,20.7097738 246.58528,25.2935066 249.135919,30.3055117 C251.657178,35.2531208 253.348278,40.4400636 254.392261,46.2546543 C255.274174,51.1751986 255.687895,56.3145158 255.867563,63.0648921 C255.929047,65.3820573 255.962948,67.789057 255.982905,70.7976682 C255.990842,72.2202422 255.995512,73.7078401 255.997863,75.391999 C255.999644,76.6681735 256,77.6890529 256,79.9872922 Z"/>
</svg>