<?xml version="1.0" standalone="no"?>
<!DOCTYPE svg PUBLIC "-//W3C//DTD SVG 20010904//EN"
 "http://www.w3.org/TR/2001/REC-SVG-20010904/DTD/svg10.dtd">
<svg version="1.0" xmlns="http://www.w3.org/2000/svg"
 width="512.000000pt" height="512.000000pt" viewBox="0 0 512.000000 512.000000"
 preserveAspectRatio="xMidYMid meet">
<metadata>
Created by potrace 1.11, written by Peter Selinger 2001-2013
</metadata>
<g transform="translate(0.000000,512.000000) scale(0.100000,-0.100000)"
fill="#000000" stroke="none">
<path d="M1565 5105 c-390 -72 -730 -252 -1014 -536 -287 -287 -468 -631 -537
-1024 -17 -98 -19 -531 -3 -638 24 -159 95 -380 169 -528 99 -196 214 -354
375 -514 299 -299 635 -470 1060 -541 124 -21 414 -23 540 -5 338 49 681 200
918 404 l58 50 35 -34 34 -33 0 -120 0 -121 733 -733 c402 -402 739 -732 747
-732 20 0 440 421 440 440 0 8 -330 345 -733 748 l-732 732 -121 0 -120 0 -33
34 -34 35 50 58 c204 237 355 580 404 918 18 126 16 416 -5 540 -71 425 -242
761 -541 1060 -160 161 -318 276 -514 375 -148 74 -369 145 -528 169 -100 15
-559 12 -648 -4z m607 -615 c545 -112 937 -535 1019 -1101 15 -107 7 -333 -16
-439 -112 -517 -488 -893 -1005 -1005 -106 -23 -332 -31 -439 -16 -297 43
-540 160 -745 359 -404 393 -499 1040 -229 1554 193 367 561 615 988 667 110
13 310 4 427 -19z"/>
<path d="M1629 4437 c-18 -12 -44 -38 -57 -57 -40 -59 -27 -109 67 -267 l80
-132 -242 -405 -242 -405 -203 -1 c-216 0 -250 -6 -299 -52 -32 -30 -46 -88
-34 -136 14 -49 68 -101 117 -113 22 -4 344 -9 717 -9 l677 0 12 28 c36 88 -4
199 -90 249 l-47 28 -246 5 -247 5 300 500 c165 275 311 525 325 555 14 30 25
70 25 88 -3 81 -87 150 -169 137 -55 -8 -102 -48 -144 -122 l-32 -55 -29 48
c-78 127 -159 165 -239 111z"/>
<path d="M2066 3847 c-46 -67 -66 -132 -66 -216 0 -126 17 -163 313 -661 291
-492 316 -531 359 -564 38 -27 118 -27 155 0 62 46 88 115 70 184 -5 19 -38
83 -73 141 -35 59 -64 110 -64 113 0 3 37 6 83 6 45 0 100 5 121 10 76 17 126
73 133 147 5 54 -18 98 -70 137 -26 20 -43 21 -248 24 l-219 3 -206 347 c-202
339 -230 382 -244 382 -4 0 -24 -24 -44 -53z"/>
<path d="M1013 2798 c-12 -13 -44 -63 -72 -113 -42 -73 -51 -98 -51 -138 0
-142 153 -214 253 -120 29 28 159 240 171 279 5 17 -2 29 -34 56 -49 43 -98
58 -182 58 -54 0 -68 -4 -85 -22z"/>
</g>
</svg>
